<svg width="103" height="22" viewBox="0 0 103 22" fill="none" xmlns="http://www.w3.org/2000/svg">
<path fill-rule="evenodd" clip-rule="evenodd" d="M4.13636 15.0336L5.13164 13.1602L8.26382 21.3273H11.5716L7.09291 9.96945L11.5716 0.836356H8.35164L4.13636 9.76454V0.836356H0.916364V21.3273H4.13636V15.0336ZM16.571 18.1804C16.2685 17.878 16.1173 17.3559 16.1173 16.6144V5.54926C16.1173 4.80769 16.2685 4.28566 16.571 3.98317C16.8735 3.68069 17.2784 3.52945 17.7858 3.52945C18.2932 3.52945 18.6981 3.68069 19.0006 3.98317C19.3031 4.28566 19.4544 4.80769 19.4544 5.54926V16.6144C19.4544 17.3559 19.3031 17.878 19.0006 18.1804C18.6981 18.4829 18.2932 18.6342 17.7858 18.6342C17.2784 18.6342 16.8735 18.4829 16.571 18.1804ZM14.156 1.93408C13.3168 2.82203 12.8973 4.09538 12.8973 5.75417V16.4094C12.8973 18.0682 13.3168 19.3416 14.156 20.2295C14.9952 21.1175 16.2051 21.5614 17.7858 21.5614C19.3666 21.5614 20.5765 21.1175 21.4156 20.2295C22.2548 19.3416 22.6744 18.0682 22.6744 16.4094V5.75417C22.6744 4.09538 22.2548 2.82203 21.4156 1.93408C20.5765 1.04614 19.3666 0.602173 17.7858 0.602173C16.2051 0.602173 14.9952 1.04614 14.156 1.93408ZM27.9518 21.3273V6.48599L31.9622 21.3273H35.27V0.836356H32.4013V13.1016L29.0935 0.836356H25.0538V21.3273H27.9518ZM38.6886 1.93408C37.8983 2.82203 37.5031 4.09538 37.5031 5.75417C37.5031 6.72994 37.6592 7.57884 37.9715 8.3009C38.2837 9.02297 38.674 9.66696 39.1424 10.2329C39.6107 10.7988 40.1132 11.3209 40.6499 11.799C41.1866 12.2771 41.6891 12.7552 42.1575 13.2334C42.6258 13.7115 43.0161 14.2189 43.3284 14.7555C43.6406 15.2922 43.7967 15.9118 43.7967 16.6144C43.7967 17.3559 43.6455 17.8731 43.343 18.1658C43.0405 18.4585 42.6356 18.6049 42.1282 18.6049C41.6208 18.6049 41.2158 18.4585 40.9134 18.1658C40.6109 17.8731 40.4596 17.3559 40.4596 16.6144V15.1507H37.4153V16.4094C37.4153 18.0682 37.8202 19.3416 38.6301 20.2295C39.44 21.1175 40.6353 21.5614 42.216 21.5614C43.7967 21.5614 44.992 21.1175 45.8019 20.2295C46.6118 19.3416 47.0167 18.0682 47.0167 16.4094C47.0167 15.4337 46.8606 14.5848 46.5484 13.8627C46.2361 13.1407 45.8458 12.4967 45.3775 11.9307C44.9091 11.3648 44.4066 10.8428 43.8699 10.3646C43.3332 9.8865 42.8307 9.40839 42.3624 8.93027C41.894 8.45214 41.5037 7.94475 41.1915 7.40808C40.8792 6.87141 40.7231 6.25181 40.7231 5.54926C40.7231 4.80769 40.8646 4.28566 41.1475 3.98317C41.4305 3.68069 41.8257 3.52945 42.3331 3.52945C42.8405 3.52945 43.2357 3.68069 43.5186 3.98317C43.8016 4.28566 43.9431 4.80769 43.9431 5.54926V6.39817H46.9875V5.75417C46.9875 4.09538 46.5923 2.82203 45.8019 1.93408C45.0115 1.04614 43.826 0.602173 42.2453 0.602173C40.6645 0.602173 39.479 1.04614 38.6886 1.93408ZM58.2073 0.836356H48.2545V3.76363H51.6209V21.3273H54.8409V3.76363H58.2073V0.836356ZM66.5584 20.9467C66.5974 21.0638 66.6364 21.1907 66.6755 21.3273H69.954C69.7979 20.937 69.7003 20.5515 69.6613 20.171C69.6222 19.7904 69.6027 19.3465 69.6027 18.8391V15.6776C69.6027 14.6043 69.4515 13.692 69.149 12.9406C68.8465 12.1893 68.2855 11.6478 67.4658 11.316C68.8709 10.6525 69.5734 9.26691 69.5734 7.15927V5.54927C69.5734 3.96853 69.1978 2.78788 68.4464 2.00727C67.6951 1.22666 66.4803 0.836356 64.802 0.836356H59.9427V21.3273H63.1627V12.9845H64.2751C65.0167 12.9845 65.5533 13.1797 65.8851 13.57C66.2168 13.9603 66.3827 14.6336 66.3827 15.5898V18.8098C66.3827 19.2196 66.3876 19.5611 66.3974 19.8344C66.4071 20.1076 66.4266 20.332 66.4559 20.5076C66.4852 20.6833 66.5193 20.8296 66.5584 20.9467ZM63.1627 10.0573V3.76363H64.7142C65.2801 3.76363 65.6948 3.92951 65.9583 4.26127C66.2217 4.59302 66.3535 5.12969 66.3535 5.87126V7.89108C66.3535 8.71072 66.1827 9.27666 65.8412 9.5889C65.4997 9.90114 65.0264 10.0573 64.4215 10.0573H63.1627ZM75.1144 16.6436V0.836356H71.8944V16.4387C71.8944 18.0975 72.2993 19.3709 73.1092 20.2588C73.9191 21.1468 75.1143 21.5907 76.6951 21.5907C78.2758 21.5907 79.4711 21.1468 80.281 20.2588C81.0909 19.3709 81.4958 18.0975 81.4958 16.4387V0.836356H78.4514V16.6436C78.4514 17.3852 78.3002 17.9024 77.9977 18.1951C77.6952 18.4878 77.2903 18.6342 76.7829 18.6342C76.2755 18.6342 75.8706 18.4878 75.5681 18.1951C75.2656 17.9024 75.1144 17.3852 75.1144 16.6436ZM102.773 0.836356H92.8202V3.76363H96.1865V21.3273H99.4065V3.76363H102.773V0.836356ZM91.389 1.03058L83.0254 11.4851L91.389 21.9397V1.03058Z" fill="#00A4E5"/>
</svg>
